<svg xmlns="http://www.w3.org/2000/svg" viewBox="0 0 800 800" width="75" height="75">
	<style>
		tspan { white-space:pre }
		.shp1 { fill: #CCCCCC } 
	</style>

	<path id="XMLID_51_" class="shp1" d="M574.9 92.9C574.2 92.9 573.2 93.2 573 92.9C565.7 83.6 559.8 91.3 554.8 95.2C550.8 98.4 548.8 102.2 542.3 99.8C538.8 98.5 533.5 100.6 529.7 102.5C523.6 105.5 512.2 101.3 510.4 94.6C509.9 92.8 509.1 91.1 508.2 89.3C502.9 78.3 510.9 73 517.7 67.2C518 67 518.3 66.8 518.6 66.6C531.3 57.4 531.3 57.4 548.6 57.4C546.3 57.3 544.7 57.2 543 57.1C543.1 56.6 543.1 56 543.2 55.5C553.1 56.9 563.4 57.2 572.8 60.2C580.4 62.6 587.5 67.7 594 72.6C602.8 79.3 612 86.1 619.1 94.5C628.3 105.3 636.2 117.4 643.5 129.6C649.4 139.5 653.9 150.3 658.2 161C662.2 170.9 667 180.9 668.3 191.2C669.5 200.1 666.6 209 660.1 217.2C651.3 228.2 646.1 242.1 637.3 253.1C628.8 263.7 618.2 272.9 607.2 281C600.8 285.7 591.9 287 584.3 290.2C575.7 293.8 566.7 297 558.9 301.9C548.8 308.3 546 319.7 542.7 330.5C536 352.3 526.6 372.7 509.2 388.5C500.1 396.7 490.4 404.7 483.3 414.5C477.4 422.6 474.8 433.1 470.6 442.4C469.2 445.6 467.3 448.7 466.1 450.8C417.4 467.6 369 484.4 321.3 500.9C320.3 490.5 319.3 480.4 318.2 470.3C317 459.3 316.4 448.2 314.2 437.4C311.2 423.2 304 410.8 293.7 400.5C289 395.8 283.2 392.2 278 388.1C277.6 387.7 277.4 387 277.2 386.4C277.6 386.5 277.9 386.5 276.2 386.2C270.5 379.1 262.9 371.5 257.4 362.6C252.4 354.6 249.3 345.3 245.8 336.4C242.7 328.5 241.6 319.6 237.3 312.5C233.3 305.8 227.4 298.9 220.6 295.7C207.5 289.5 192.8 286.8 179.7 280.7C172.1 277.2 165.9 270.2 159.8 264C153.9 257.9 148.6 251 143.8 243.9C137.9 235.3 132.2 226.5 127.4 217.3C123.2 209.3 120 200.7 117.1 192.1C116.3 189.8 118.1 186.6 118.8 183.7C118.4 184 118 184.3 116.6 185.4C120.6 176.4 124.2 168.6 127.8 160.7C132.9 149.2 137.5 137.4 143.3 126.2C147 119.1 152 112.6 157 106.3C162.7 99 168.5 91.6 175.1 85.3C182.8 78 191.1 71.3 199.8 65.4C205.3 61.7 211.8 58.2 218.2 57.4C229.2 56.1 240.4 56.9 251.5 57C264.8 57.2 271.1 68.1 279.3 76C280.9 77.5 280.5 82.1 279.6 84.8C278 89.3 276.1 94.1 272.9 97.5C266.9 103.9 260.3 105.7 253.4 97.7C252.1 96.2 246.9 96.3 245 97.7C237.2 103.6 234.6 96 230.7 92.7C220.7 84.2 216.1 86.4 207.2 96.1C196.8 107.5 197.4 121.4 193.9 134.4C191.6 142.7 191.3 151.6 189.9 160.1C189.7 161.3 187.9 162.1 187.2 163.3C186.5 164.5 186.3 166 185.7 167.2C182.8 172.7 179.7 178.1 177.2 183.7C176.6 185 177.8 188.5 178.9 188.9C182 190 185.5 190.4 188.8 190.3C196.6 190.1 204.3 189.1 212.1 188.9C228.1 188.5 234.8 201.9 244.4 211C247.3 213.8 251.9 215.9 255.9 216.1C272.3 216.9 285.8 223.8 298 234.3C306.9 242 316 249.7 326 255.7C329.7 257.9 338 257.1 341.4 254.3C349.6 247.3 362.5 243.2 362.8 230.1C363.1 220.3 360.6 210.4 359.4 200.5C359.3 200 359.9 199.5 360.2 199C351.7 197.3 347.4 188.9 345.4 180.3C343.1 170.2 351.5 164.9 352.3 156.9C353 150.3 353.2 143.3 351.8 136.8C349.4 125.7 357.1 109.9 368.3 108.3C378.8 106.8 389.7 107.8 400.4 107.1C411.4 106.4 419.4 111.6 426.2 119.3C433.9 128 433.4 137.7 430.6 148.5C429.5 152.8 432 160 435.4 163C442.6 169.3 441.9 176.3 439.6 183.5C437.7 189.3 434.7 194.9 431.3 200C430.2 201.7 425.5 200.8 423.9 202.5C417.6 209 416.8 223 422.5 230.6C428.5 238.5 435 246.2 441.8 253.4C448.3 260.3 458.7 260.5 466.6 254.3C475.3 247.4 483.4 239.7 492.3 232.9C503.2 224.5 514.9 219.4 529.5 219.2C535.5 219.1 542.7 212.3 547.1 206.7C558.6 192.2 577.2 186.1 594.8 191.6C598.7 192.8 603.7 190.7 608.2 190.1C607.6 185.7 607.8 181.1 606.3 177.1C602 166 595.9 155.4 592.5 144.1C590.3 136.6 592.8 127.7 590.7 120.1C588.6 112.4 583.6 105.5 579.7 98.3C578 96.3 576.2 94.5 574.9 92.9Z" />
	<path id="XMLID_50_" class="shp1" d="M530.2 378.4C535.8 376.7 540.7 375.2 545.7 373.7C552.4 371.7 559.1 369.6 565.9 368C572.2 366.5 578.6 365.3 584.9 364.3C592.1 363.1 599.3 361.2 606.5 361.3C617.2 361.4 627.9 362.7 638.4 364.1C643 364.7 645.6 375.9 643.7 380.8C638.5 393.9 629.4 403.5 618.2 411.5C606.7 419.7 596.1 429 584.2 436.5C568.7 446.2 552.5 454.8 536.2 463.2C519.6 471.7 502.6 479.5 485.6 487.2C476.3 491.4 466.6 494.6 457.1 498.4C447.6 502.1 438.2 506.3 428.5 509.6C415.4 514 402.1 517.8 388.9 521.9C381.2 524.3 373.6 527.1 365.8 529.3C352.6 533.1 339.2 536.5 326 540.2C312.3 544 309.9 545 301.6 547.3C295.2 549.1 268.4 556.4 232.3 560.5C202.6 563.8 190.7 562.2 180.2 558.8C173 556.5 159.3 552.3 158.6 543.3C157.9 534.6 163.2 528.6 169.3 523.5C177.6 516.6 185.9 509.5 194.8 503.4C204 497 213.7 491.2 223.6 485.8C229.8 482.4 236.7 480.4 243.1 477.5C253.1 472.9 262.9 468 272.8 463.3C274.5 462.5 276.3 461.8 278.1 461.3C278.7 461.1 279.5 461.9 280.1 462.2C279.8 462.8 279.6 463.7 279.1 463.9C276.1 465.7 272.9 467.1 270 469C251.9 480.6 233.8 492.2 215.7 503.8C206.5 509.7 197 515.1 188.3 521.7C184.4 524.7 182.2 529.9 179.2 534.1C184 536.9 188.7 541.8 193.7 542.2C205.7 543.2 218 542.9 230 541.7C242.9 540.4 255.6 537.6 268.3 535.1C279.8 532.8 291.3 530.5 302.6 527.4C305.1 526.7 307 526.2 308.7 525.6C317.9 522.5 324.4 519.8 325.5 519.3C338.2 513.8 431.7 484.6 471.1 470.6C574.6 433.8 626.8 387.1 624.8 379C624.2 376.8 622.9 375.4 622.9 375.4C617.5 374.4 611.9 373.8 606.4 373.1C602.5 372.6 598.5 371.8 594.6 372.1C582 373.2 573 374 562.1 375.9C554.6 376.9 543.8 378.3 530.2 378.4Z" />
</svg>